<mxfile host="app.diagrams.net" modified="2024-06-11T15:02:12.883Z" agent="Mozilla/5.0 (Windows NT 10.0; Win64; x64) AppleWebKit/537.36 (KHTML, like Gecko) Chrome/125.0.0.0 Safari/537.36" etag="l8oHjNXbeNpnwt3R0juY" version="22.1.19" type="device">
  <diagram name="Page-1" id="YweaYIu47Id8B9wNBi70">
    <mxGraphModel dx="2514" dy="868" grid="1" gridSize="10" guides="1" tooltips="1" connect="1" arrows="1" fold="1" page="1" pageScale="1" pageWidth="827" pageHeight="1169" math="0" shadow="0">
      <root>
        <mxCell id="0" />
        <mxCell id="1" parent="0" />
        <mxCell id="945w5tGRPoMTtFY0EIu--1" value="USB CDC" style="rounded=0;whiteSpace=wrap;html=1;" vertex="1" parent="1">
          <mxGeometry x="210" y="150" width="390" height="80" as="geometry" />
        </mxCell>
        <mxCell id="945w5tGRPoMTtFY0EIu--2" value="" style="endArrow=classic;html=1;rounded=0;exitX=0.5;exitY=1;exitDx=0;exitDy=0;entryX=0.5;entryY=0;entryDx=0;entryDy=0;" edge="1" parent="1" source="945w5tGRPoMTtFY0EIu--1" target="945w5tGRPoMTtFY0EIu--4">
          <mxGeometry width="50" height="50" relative="1" as="geometry">
            <mxPoint x="390" y="410" as="sourcePoint" />
            <mxPoint x="405" y="320" as="targetPoint" />
          </mxGeometry>
        </mxCell>
        <mxCell id="945w5tGRPoMTtFY0EIu--3" value="Update firmware" style="rounded=0;whiteSpace=wrap;html=1;" vertex="1" parent="1">
          <mxGeometry x="30" y="450" width="210" height="60" as="geometry" />
        </mxCell>
        <mxCell id="945w5tGRPoMTtFY0EIu--4" value="Audio Task" style="rounded=0;whiteSpace=wrap;html=1;" vertex="1" parent="1">
          <mxGeometry x="300" y="450" width="210" height="60" as="geometry" />
        </mxCell>
        <mxCell id="945w5tGRPoMTtFY0EIu--5" value="Hall sensor" style="rounded=0;whiteSpace=wrap;html=1;" vertex="1" parent="1">
          <mxGeometry x="570" y="450" width="210" height="60" as="geometry" />
        </mxCell>
        <mxCell id="945w5tGRPoMTtFY0EIu--6" value="" style="endArrow=classic;html=1;rounded=0;entryX=0.5;entryY=0;entryDx=0;entryDy=0;" edge="1" parent="1" target="945w5tGRPoMTtFY0EIu--3">
          <mxGeometry width="50" height="50" relative="1" as="geometry">
            <mxPoint x="400" y="310" as="sourcePoint" />
            <mxPoint x="440" y="360" as="targetPoint" />
            <Array as="points">
              <mxPoint x="135" y="310" />
            </Array>
          </mxGeometry>
        </mxCell>
        <mxCell id="945w5tGRPoMTtFY0EIu--10" value="" style="endArrow=classic;html=1;rounded=0;exitX=0.5;exitY=0;exitDx=0;exitDy=0;" edge="1" parent="1" source="945w5tGRPoMTtFY0EIu--5">
          <mxGeometry width="50" height="50" relative="1" as="geometry">
            <mxPoint x="390" y="410" as="sourcePoint" />
            <mxPoint x="410" y="310" as="targetPoint" />
            <Array as="points">
              <mxPoint x="675" y="310" />
            </Array>
          </mxGeometry>
        </mxCell>
        <mxCell id="945w5tGRPoMTtFY0EIu--11" value="&lt;font style=&quot;font-size: 15px;&quot;&gt;Audio Task&lt;/font&gt;" style="text;html=1;align=center;verticalAlign=middle;resizable=0;points=[];autosize=1;strokeColor=none;fillColor=none;" vertex="1" parent="1">
          <mxGeometry x="275" y="348" width="100" height="30" as="geometry" />
        </mxCell>
        <mxCell id="945w5tGRPoMTtFY0EIu--12" value="&lt;font style=&quot;font-size: 15px;&quot;&gt;Request Update firmware&lt;/font&gt;" style="text;html=1;align=center;verticalAlign=middle;resizable=0;points=[];autosize=1;strokeColor=none;fillColor=none;" vertex="1" parent="1">
          <mxGeometry x="-45" y="348" width="190" height="30" as="geometry" />
        </mxCell>
        <mxCell id="945w5tGRPoMTtFY0EIu--13" value="&lt;font style=&quot;font-size: 15px;&quot;&gt;Read hall sensor&lt;/font&gt;" style="text;html=1;align=center;verticalAlign=middle;resizable=0;points=[];autosize=1;strokeColor=none;fillColor=none;" vertex="1" parent="1">
          <mxGeometry x="690" y="348" width="140" height="30" as="geometry" />
        </mxCell>
        <mxCell id="945w5tGRPoMTtFY0EIu--20" value="&lt;font style=&quot;font-size: 15px;&quot;&gt;ID&lt;/font&gt;" style="rounded=0;whiteSpace=wrap;html=1;fillColor=#e3c800;strokeColor=#B09500;fontColor=#000000;" vertex="1" parent="1">
          <mxGeometry x="-10" y="640" width="120" height="60" as="geometry" />
        </mxCell>
        <mxCell id="945w5tGRPoMTtFY0EIu--21" value="&lt;font style=&quot;font-size: 15px;&quot;&gt;Data length&lt;/font&gt;" style="rounded=0;whiteSpace=wrap;html=1;fillColor=#647687;fontColor=#ffffff;strokeColor=#314354;" vertex="1" parent="1">
          <mxGeometry x="110" y="640" width="120" height="60" as="geometry" />
        </mxCell>
        <mxCell id="945w5tGRPoMTtFY0EIu--22" value="&lt;font style=&quot;font-size: 15px;&quot;&gt;Data 0&lt;/font&gt;" style="rounded=0;whiteSpace=wrap;html=1;" vertex="1" parent="1">
          <mxGeometry x="230" y="640" width="120" height="60" as="geometry" />
        </mxCell>
        <mxCell id="945w5tGRPoMTtFY0EIu--24" value="&lt;font style=&quot;font-size: 20px;&quot;&gt;ID = 1 : update firmware&lt;/font&gt;" style="text;html=1;align=left;verticalAlign=middle;resizable=0;points=[];autosize=1;strokeColor=none;fillColor=none;" vertex="1" parent="1">
          <mxGeometry y="760" width="240" height="40" as="geometry" />
        </mxCell>
        <mxCell id="945w5tGRPoMTtFY0EIu--25" value="&lt;font style=&quot;font-size: 20px;&quot;&gt;ID = 2 : Control Led&lt;/font&gt;" style="text;html=1;align=left;verticalAlign=middle;resizable=0;points=[];autosize=1;strokeColor=none;fillColor=none;" vertex="1" parent="1">
          <mxGeometry y="800" width="200" height="40" as="geometry" />
        </mxCell>
        <mxCell id="945w5tGRPoMTtFY0EIu--26" value="&lt;font style=&quot;font-size: 20px;&quot;&gt;ID = 3 : Read Hall Sensor&lt;/font&gt;" style="text;html=1;align=center;verticalAlign=middle;resizable=0;points=[];autosize=1;strokeColor=none;fillColor=none;" vertex="1" parent="1">
          <mxGeometry x="-5" y="840" width="250" height="40" as="geometry" />
        </mxCell>
        <mxCell id="945w5tGRPoMTtFY0EIu--27" value="&lt;font style=&quot;font-size: 15px;&quot;&gt;Data 1&lt;/font&gt;" style="rounded=0;whiteSpace=wrap;html=1;" vertex="1" parent="1">
          <mxGeometry x="350" y="640" width="120" height="60" as="geometry" />
        </mxCell>
        <mxCell id="945w5tGRPoMTtFY0EIu--28" value="...." style="rounded=0;whiteSpace=wrap;html=1;" vertex="1" parent="1">
          <mxGeometry x="470" y="640" width="120" height="60" as="geometry" />
        </mxCell>
        <mxCell id="945w5tGRPoMTtFY0EIu--29" value="&lt;font style=&quot;font-size: 15px;&quot;&gt;Data n&lt;/font&gt;" style="rounded=0;whiteSpace=wrap;html=1;" vertex="1" parent="1">
          <mxGeometry x="590" y="640" width="120" height="60" as="geometry" />
        </mxCell>
        <mxCell id="945w5tGRPoMTtFY0EIu--30" value="&lt;font style=&quot;font-size: 15px;&quot;&gt;Crc&lt;/font&gt;" style="rounded=0;whiteSpace=wrap;html=1;fillColor=#fad7ac;strokeColor=#b46504;" vertex="1" parent="1">
          <mxGeometry x="710" y="640" width="120" height="60" as="geometry" />
        </mxCell>
      </root>
    </mxGraphModel>
  </diagram>
</mxfile>
